<?xml version="1.0" encoding="UTF-8" standalone="no"?>
<svg
   height="20"
   width="20"
   version="1.1"
   id="svg33"
   sodipodi:docname="IconDB_020.svg"
   inkscape:export-filename="IconDB_020.png"
   inkscape:export-xdpi="96"
   inkscape:export-ydpi="96"
   inkscape:version="1.3.2 (091e20e, 2023-11-25, custom)"
   xmlns:inkscape="http://www.inkscape.org/namespaces/inkscape"
   xmlns:sodipodi="http://sodipodi.sourceforge.net/DTD/sodipodi-0.dtd"
   xmlns:xlink="http://www.w3.org/1999/xlink"
   xmlns="http://www.w3.org/2000/svg"
   xmlns:svg="http://www.w3.org/2000/svg">
  <defs
     id="defs33" />
  <sodipodi:namedview
     id="namedview33"
     pagecolor="#ffffff"
     bordercolor="#000000"
     borderopacity="0.25"
     inkscape:showpageshadow="2"
     inkscape:pageopacity="0.0"
     inkscape:pagecheckerboard="0"
     inkscape:deskcolor="#d1d1d1"
     showgrid="true"
     inkscape:current-layer="svg33">
    <inkscape:grid
       id="grid33"
       units="px"
       originx="0"
       originy="0"
       spacingx="0.5"
       spacingy="0.5"
       empcolor="#0099e5"
       empopacity="0.30196078"
       color="#0099e5"
       opacity="0.14901961"
       empspacing="2"
       dotted="false"
       gridanglex="30"
       gridanglez="30"
       visible="true" />
  </sodipodi:namedview>
  <linearGradient
     id="a"
     gradientUnits="userSpaceOnUse"
     x1="11.72963"
     x2="17.270371"
     y1="9.305555"
     y2="19.694444">
    <stop
       offset="0"
       stop-color="#0893b3"
       id="stop1" />
    <stop
       offset="1"
       stop-color="#2e64a2"
       id="stop2" />
  </linearGradient>
  <linearGradient
     id="b"
     gradientUnits="userSpaceOnUse"
     x1="10.222223"
     x2="15.722223"
     y1="9.611111"
     y2="19.654985">
    <stop
       offset="0"
       stop-color="#88e0f6"
       id="stop3" />
    <stop
       offset="1"
       stop-color="#0ab4dd"
       id="stop4" />
  </linearGradient>
  <linearGradient
     id="c"
     gradientTransform="matrix(1.2727272 0 0 1.2413793 -.272727 2.862069)"
     gradientUnits="userSpaceOnUse"
     x1="1"
     x2="12"
     xlink:href="#d"
     y1="2.5"
     y2="2.5" />
  <linearGradient
     id="d">
    <stop
       offset="0"
       stop-color="#2de3e3"
       id="stop5" />
    <stop
       offset=".23818764"
       stop-color="#71ffff"
       id="stop6" />
    <stop
       offset=".48656252"
       stop-color="#08b9b9"
       id="stop7" />
    <stop
       offset=".6837101"
       stop-color="#08cfcf"
       id="stop8" />
    <stop
       offset=".86378187"
       stop-color="#079a9a"
       id="stop9" />
    <stop
       offset="1"
       stop-color="#07cccc"
       id="stop10" />
  </linearGradient>
  <linearGradient
     id="e"
     gradientTransform="matrix(1.2727272 0 0 1.2413793 -.272727 7.206897)"
     gradientUnits="userSpaceOnUse"
     x1="1"
     x2="12"
     xlink:href="#d"
     y1="2.5"
     y2="2.5" />
  <linearGradient
     id="f"
     gradientTransform="matrix(1.2727272 0 0 1.2413793 -.272727 9.068966)"
     gradientUnits="userSpaceOnUse"
     x1="1"
     x2="12"
     xlink:href="#g"
     y1="3.122919"
     y2="3.122919" />
  <linearGradient
     id="g">
    <stop
       offset="0"
       stop-color="#999999"
       id="stop11" />
    <stop
       offset=".23818764"
       stop-color="#f8f8f8"
       id="stop12" />
    <stop
       offset=".48656252"
       stop-color="#868684"
       id="stop13" />
    <stop
       offset=".6837101"
       stop-color="#b2b2b2"
       id="stop14" />
    <stop
       offset=".86378187"
       stop-color="#4f4f4f"
       id="stop15" />
    <stop
       offset="1"
       stop-color="#858585"
       id="stop16" />
  </linearGradient>
  <linearGradient
     id="h"
     gradientTransform="matrix(1.2727272 0 0 1.2413793 -.272727 13.413793)"
     gradientUnits="userSpaceOnUse"
     x1="1"
     x2="12"
     xlink:href="#g"
     y1="3.122919"
     y2="3.122919" />
  <linearGradient
     id="i"
     gradientTransform="matrix(1.2727272 0 0 1.2413793 -.272727 11.551724)"
     gradientUnits="userSpaceOnUse"
     x1="1"
     x2="12"
     xlink:href="#d"
     y1="2.5"
     y2="2.5" />
  <linearGradient
     id="j"
     gradientTransform="matrix(1.2727272 0 0 1.2413793 -.272727 16.517241)"
     gradientUnits="userSpaceOnUse"
     x1="1"
     x2="12"
     xlink:href="#k"
     y1="-1"
     y2="-1" />
  <linearGradient
     id="k">
    <stop
       offset="0"
       stop-color="#9d9d9d"
       id="stop17" />
    <stop
       offset="1"
       stop-color="#808080"
       id="stop18" />
  </linearGradient>
  <linearGradient
     id="l"
     gradientTransform="matrix(1.2727272 0 0 1.2413793 -.272727 4.724138)"
     gradientUnits="userSpaceOnUse"
     x1="1"
     x2="12"
     xlink:href="#g"
     y1="3.122919"
     y2="3.122919" />
  <linearGradient
     id="m"
     gradientTransform="matrix(1.2727272 0 0 1.2413793 -.272727 12.172414)"
     gradientUnits="userSpaceOnUse"
     x1="1"
     x2="12"
     xlink:href="#k"
     y1="-1"
     y2="-1" />
  <linearGradient
     id="n"
     gradientTransform="matrix(1.2727272 0 0 1.2413793 -.272727 3.482759)"
     gradientUnits="userSpaceOnUse"
     x1="1"
     x2="12"
     y1="-1"
     y2="-1">
    <stop
       offset="0"
       stop-color="#b0b0b0"
       id="stop19" />
    <stop
       offset="1"
       stop-color="#cbcbcb"
       id="stop20" />
  </linearGradient>
  <linearGradient
     id="o"
     gradientTransform="matrix(1.2727272 0 0 1.2413793 -.272727 7.827586)"
     gradientUnits="userSpaceOnUse"
     x1="4.5"
     x2="6"
     xlink:href="#k"
     y2="-2" />
  <linearGradient
     id="p"
     gradientTransform="matrix(1.2727272 0 0 1.2413793 -.272841 .386404)"
     gradientUnits="userSpaceOnUse"
     x1="1"
     x2="12"
     xlink:href="#g"
     y1="3.122919"
     y2="3.122919" />
  <g
     transform="translate(.250114)"
     id="g32">
    <ellipse
       cx="8"
       cy="6.586207"
       fill="url(#o)"
       rx="7"
       ry="1.241379"
       id="ellipse20" />
    <ellipse
       cx="8"
       cy="2.241379"
       fill="url(#n)"
       rx="7"
       ry="1.241379"
       id="ellipse21" />
    <ellipse
       cx="8"
       cy="10.931034"
       fill="url(#m)"
       rx="7"
       ry="1.241379"
       id="ellipse22" />
    <path
       d="m8 10.310345c-3.8659929 0-6.9999997-.555785-6.9999997-1.241379v-2.4827591c0 .6855948 3.1340068 1.2413793 6.9999997 1.2413793 3.865993 0 7-.5557845 7-1.2413793v2.4827591c0 .685594-3.134007 1.241379-7 1.241379z"
       fill="url(#l)"
       stroke-linecap="round"
       stroke-width=".1"
       id="path22" />
    <ellipse
       cx="8"
       cy="15.275862"
       fill="url(#j)"
       rx="7"
       ry="1.241379"
       id="ellipse23" />
    <path
       d="m1.636364 13.927803v1.241379c1.2727272.71671 3.8181817.851508 6.363636.851508 2.545454 0 5.090909-.124138 6.363636-.851508v-1.241379c-1.104076.428204-3.535052.727369-6.363636.727369-2.8285838 0-5.2595605-.299165-6.363636-.727369z"
       fill="url(#i)"
       stroke-linecap="round"
       stroke-width=".1"
       id="path23" />
    <path
       d="m8 19c-3.8659929 0-6.9999997-.555784-6.9999997-1.241379v-2.482759c0 .685595 3.1340068 1.241379 6.9999997 1.241379 3.865993 0 7-.555784 7-1.241379v2.482759c0 .685595-3.134007 1.241379-7 1.241379z"
       fill="url(#h)"
       stroke-linecap="round"
       stroke-width=".1"
       id="path24" />
    <path
       d="m8 14.655172c-3.8659929 0-6.9999997-.555784-6.9999997-1.241379v-2.482758c0 .685594 3.1340068 1.241379 6.9999997 1.241379 3.865993 0 7-.555785 7-1.241379v2.482758c0 .685595-3.134007 1.241379-7 1.241379z"
       fill="url(#f)"
       stroke-linecap="round"
       stroke-width=".1"
       id="path25" />
    <path
       d="m7.9998857 5.9726109c-3.8659929 0-6.99999968-.555785-6.99999968-1.241379v-2.4827591c0 .6855948 3.13400678 1.2413793 6.99999968 1.2413793 3.8659933 0 7.0000003-.5557845 7.0000003-1.2413793v2.4827591c0 .685594-3.134007 1.241379-7.0000003 1.241379z"
       fill="url(#p)"
       stroke-linecap="round"
       stroke-width=".1"
       id="path26" />
    <path
       d="m8 3.6813848c-6.9999997.0000001-6.9999997-1.4400055-6.9999997-1.4400055s0 1.1172359 6.9999997 1.1172359c7 0 7-1.1172359 7-1.1172359s0 1.4400055-7 1.4400055z"
       fill="#e6e6e6"
       stroke-linecap="round"
       stroke-width=".1"
       id="path27" />
    <path
       d="m8 16.715867c-7.0000001 0-7.0000001-1.440005-7.0000001-1.440005s0 1.117236 7.0000001 1.117236c7 0 7-1.117236 7-1.117236s0 1.440005-7 1.440005z"
       fill="#e6e6e6"
       stroke-linecap="round"
       stroke-width=".1"
       id="path28" />
    <path
       d="m8 12.371039c-7.0000001 0-7.0000001-1.440004-7.0000001-1.440004s0 1.117236 7.0000001 1.117236c7 0 7-1.117236 7-1.117236s0 1.440004-7 1.440004z"
       fill="#e6e6e6"
       stroke-linecap="round"
       stroke-width=".1"
       id="path29" />
    <path
       d="m8 8.026213c-7.0000001 0-7.0000001-1.4400061-7.0000001-1.4400061s0 1.1172359 7.0000001 1.1172359c7 0 7-1.1172359 7-1.1172359s0 1.4400061-7 1.4400061z"
       fill="#e6e6e6"
       stroke-linecap="round"
       stroke-width=".1"
       id="path30" />
    <path
       d="m1.636364 9.582975v1.241379c1.2727272.71671 3.8181817.851508 6.363636.851508 2.545454 0 5.090909-.124138 6.363636-.851508v-1.241379c-1.104076.428204-3.535052.72737-6.363636.72737-2.8285838 0-5.2595605-.299166-6.363636-.72737z"
       fill="url(#e)"
       stroke-linecap="round"
       stroke-width=".1"
       id="path31" />
    <path
       d="m1.636364 5.2381471v1.2413795c1.2727272.7167103 3.8181817.8515079 6.363636.8515079 2.545454 0 5.090909-.1241379 6.363636-.8515079v-1.2413795c-1.104076.4282052-3.535052.7273702-6.363636.7273702-2.8285838 0-5.2595605-.299165-6.363636-.7273702z"
       fill="url(#c)"
       stroke-linecap="round"
       stroke-width=".1"
       id="path32" />
  </g>
  <rect
     fill="url(#a)"
     height="10.388889"
     rx="1.731482"
     stroke="url(#b)"
     stroke-width=".611111"
     width="10.388889"
     x="9.305555"
     y="9.305555"
     id="rect32" />
  <path
     d="m14.5 17.311111v-3.055555"
     fill="none"
     stroke="#ffffff"
     stroke-linecap="round"
     stroke-width="1.71111"
     id="path33" />
  <circle
     cx="14.5"
     cy="11.75"
     fill="#ffffff"
     r=".886111"
     stroke-width="1.18149"
     id="circle33" />
</svg>
